<?xml version="1.0" encoding="utf-8"?>
<!-- Generator: Adobe Illustrator 19.2.1, SVG Export Plug-In . SVG Version: 6.00 Build 0)  -->
<svg version="1.1" id="Layer_1" xmlns="http://www.w3.org/2000/svg" xmlns:xlink="http://www.w3.org/1999/xlink" x="0px" y="0px"
	 viewBox="0 0 1653 624" style="enable-background:new 0 0 1653 624;" xml:space="preserve">
<style type="text/css">
	.st0{fill:none;stroke:#FFFFFF;stroke-width:2;stroke-miterlimit:10;}
	.st1{fill:none;stroke:#FFFFFF;stroke-miterlimit:10;}
	.st2{fill:none;stroke:#FFFFFF;stroke-width:1.3186;stroke-miterlimit:10;}
	.st3{fill:none;stroke:#FFFFFF;stroke-width:1.6667;stroke-miterlimit:10;}
</style>
<g>
	<path class="st0" d="M264.9,345H134c-8.9,0-16.1-7.2-16.1-16.1V198c0-8.9,7.2-16.1,16.1-16.1h130.9c8.9,0,16.1,7.2,16.1,16.1v130.9
		C281.1,337.8,273.8,345,264.9,345z"/>
	<polyline class="st0" points="149,182 149,120.9 137.3,110.9 	"/>
	<polyline class="st0" points="158,182 158,106 131.4,82.9 	"/>
	<polyline class="st0" points="167,182 167,91 124.4,51.5 	"/>
	<polyline class="st0" points="176,182 176,76.5 114,14.2 	"/>
	<polyline class="st0" points="214,182 214,82.2 271.3,59.7 	"/>
	<polyline class="st0" points="223,182 223,93.3 271.6,79.8 	"/>
	<polyline class="st0" points="232,182 232,106.4 271,98.1 	"/>
	<polyline class="st0" points="241,182 241,120 270.4,116.7 	"/>
	<polyline class="st0" points="186,182 186,21 1653,21 	"/>
	<polyline class="st0" points="195,182 195,28 1653,28 	"/>
	<polyline class="st0" points="204,182 204,35 1653,35 	"/>
	<circle class="st0" cx="109.7" cy="8.5" r="7.2"/>
	<circle class="st0" cx="278.1" cy="56.9" r="7.2"/>
	<circle class="st0" cx="278.1" cy="76.8" r="7.2"/>
	<circle class="st0" cx="278.1" cy="95.9" r="7.2"/>
	<circle class="st0" cx="278.1" cy="114.9" r="7.2"/>
	<circle class="st0" cx="119.7" cy="46.7" r="7.2"/>
	<circle class="st0" cx="126" cy="78.3" r="7.2"/>
	<circle class="st0" cx="131.2" cy="106.4" r="7.2"/>
</g>
<g>
	<line class="st1" x1="152.5" y1="345" x2="152.5" y2="624"/>
	<line class="st1" x1="158.5" y1="345" x2="158.5" y2="624"/>
	<line class="st1" x1="164.5" y1="345" x2="164.5" y2="624"/>
	<line class="st1" x1="170.5" y1="345" x2="170.5" y2="624"/>
	<line class="st1" x1="176.5" y1="345" x2="176.5" y2="624"/>
	<line class="st1" x1="182.5" y1="345" x2="182.5" y2="624"/>
	<line class="st1" x1="188.5" y1="345" x2="188.5" y2="624"/>
	<line class="st1" x1="194.5" y1="345" x2="194.5" y2="624"/>
	<line class="st1" x1="200.5" y1="345" x2="200.5" y2="624"/>
	<line class="st1" x1="206.5" y1="345" x2="206.5" y2="624"/>
	<line class="st1" x1="212.5" y1="345" x2="212.5" y2="624"/>
	<line class="st1" x1="218.5" y1="345" x2="218.5" y2="624"/>
	<line class="st1" x1="224.5" y1="345" x2="224.5" y2="624"/>
	<line class="st1" x1="230.5" y1="345" x2="230.5" y2="624"/>
	<line class="st1" x1="236.5" y1="345" x2="236.5" y2="624"/>
	<line class="st1" x1="242.5" y1="345" x2="242.5" y2="624"/>
	<line class="st1" x1="248.5" y1="345" x2="248.5" y2="624"/>
</g>
<circle class="st2" cx="200.5" cy="263.7" r="23.7"/>
<circle class="st3" cx="200.5" cy="263.7" r="30"/>
</svg>
