<?xml version="1.0" encoding="utf-8"?>
<!-- Generator: Adobe Illustrator 19.2.1, SVG Export Plug-In . SVG Version: 6.00 Build 0)  -->
<svg version="1.1" id="Layer_1" xmlns="http://www.w3.org/2000/svg" xmlns:xlink="http://www.w3.org/1999/xlink" x="0px" y="0px"
	 viewBox="0 0 620 446" style="enable-background:new 0 0 620 446;" xml:space="preserve">
<style type="text/css">
	.st0{fill:#FFFFFF;}
	.st1{fill:none;stroke:#FFFFFF;stroke-miterlimit:10;}
</style>
<rect x="1" class="st0" width="188" height="101"/>
<polyline class="st1" points="1.5,101 1.5,200.7 356.5,409.1 "/>
<polyline class="st1" points="12.5,101 12.5,200.7 367.5,409.1 "/>
<polyline class="st1" points="23.5,101 23.5,200.7 378.5,409.1 "/>
<polyline class="st1" points="34.5,101 34.5,200.7 389.5,409.1 "/>
<polyline class="st1" points="45.5,101 45.5,200.7 400.5,409.1 "/>
<polyline class="st1" points="56.5,101 56.5,200.7 411.5,409.1 "/>
<polyline class="st1" points="67.5,101 67.5,200.7 422.5,409.1 "/>
<polyline class="st1" points="78.5,101 78.5,200.7 433.5,409.1 "/>
<polyline class="st1" points="89.5,101 89.5,200.7 444.5,409.1 "/>
<polyline class="st1" points="100.5,101 100.5,200.7 455.5,409.1 "/>
<polyline class="st1" points="111.5,101 111.5,200.7 466.5,409.1 "/>
<polyline class="st1" points="122.5,101 122.5,200.7 477.5,409.1 "/>
<polyline class="st1" points="133.5,101 133.5,200.7 488.5,409.1 "/>
<polyline class="st1" points="144.5,101 144.5,200.7 499.5,409.1 "/>
<polyline class="st1" points="155.5,101 155.5,200.7 510.5,409.1 "/>
<polyline class="st1" points="166.5,101 166.5,200.7 521.5,409.1 "/>
<polyline class="st1" points="177.5,101 177.5,200.7 532.5,409.1 "/>
<polyline class="st1" points="188.5,101 188.5,200.7 543.5,409.1 "/>
</svg>
