<?xml version="1.0" encoding="utf-8"?>
<!-- Generator: Adobe Illustrator 19.2.1, SVG Export Plug-In . SVG Version: 6.00 Build 0)  -->
<svg version="1.1" id="Layer_1" xmlns="http://www.w3.org/2000/svg" xmlns:xlink="http://www.w3.org/1999/xlink" x="0px" y="0px"
	 viewBox="0 0 760.1 567" style="enable-background:new 0 0 760.1 567;" xml:space="preserve">
<style type="text/css">
	.st0{fill:#FFFFFF;}
	.st1{fill:none;stroke:#FFFFFF;stroke-miterlimit:10;}
</style>
<rect x="1" class="st0" width="316.5" height="183.1"/>
<polyline class="st1" points="1.6,183.1 1.6,307.4 444,567 "/>
<polyline class="st1" points="15.3,183.1 15.3,307.4 457.7,567 "/>
<polyline class="st1" points="29,183.1 29,307.4 471.4,567 "/>
<polyline class="st1" points="42.7,183.1 42.7,307.4 485.1,567 "/>
<polyline class="st1" points="56.5,183.1 56.5,307.4 498.8,567 "/>
<polyline class="st1" points="70.2,183.1 70.2,307.4 512.5,567 "/>
<polyline class="st1" points="83.9,183.1 83.9,307.4 526.2,567 "/>
<polyline class="st1" points="97.6,183.1 97.6,307.4 539.9,567 "/>
<polyline class="st1" points="111.3,183.1 111.3,307.4 553.6,567 "/>
<polyline class="st1" points="125,183.1 125,307.4 567.3,567 "/>
<polyline class="st1" points="138.7,183.1 138.7,307.4 581.1,567 "/>
<polyline class="st1" points="152.4,183.1 152.4,307.4 594.8,567 "/>
<polyline class="st1" points="166.1,183.1 166.1,307.4 608.5,567 "/>
<polyline class="st1" points="179.8,183.1 179.8,307.4 622.2,567 "/>
<polyline class="st1" points="193.5,183.1 193.5,307.4 635.9,567 "/>
<polyline class="st1" points="207.2,183.1 207.2,307.4 649.6,567 "/>
<polyline class="st1" points="220.9,183.1 220.9,307.4 663.3,567 "/>
<polyline class="st1" points="234.6,183.1 234.6,307.4 677,567 "/>
<polyline class="st1" points="249.2,183.1 249.2,307.4 691.6,567 "/>
<polyline class="st1" points="262.9,183.1 262.9,307.4 705.3,567 "/>
<polyline class="st1" points="276.6,183.1 276.6,307.4 719,567 "/>
<polyline class="st1" points="290.3,183.1 290.3,307.4 732.7,567 "/>
<polyline class="st1" points="304,183.1 304,307.4 746.4,567 "/>
<polyline class="st1" points="317.8,183.1 317.8,307.4 760.1,567 "/>
</svg>
