<?xml version="1.0" encoding="utf-8"?>
<!-- Generator: Adobe Illustrator 19.2.1, SVG Export Plug-In . SVG Version: 6.00 Build 0)  -->
<svg version="1.1" id="Layer_1" xmlns="http://www.w3.org/2000/svg" xmlns:xlink="http://www.w3.org/1999/xlink" x="0px" y="0px"
	 viewBox="0 0 621 385" style="enable-background:new 0 0 621 385;" xml:space="preserve">
<style type="text/css">
	.st0{fill:none;stroke:#FFFFFF;stroke-miterlimit:10;}
	.st1{fill:#FFFFFF;}
</style>
<polyline class="st0" points="216,384.5 307.2,384.5 457.1,215.3 "/>
<polyline class="st0" points="216,375.5 307.2,375.5 457.1,206.3 "/>
<polyline class="st0" points="216,366.5 307.2,366.5 457.1,197.3 "/>
<polyline class="st0" points="216,357.5 307.2,357.5 457.1,188.3 "/>
<polyline class="st0" points="216,348.5 307.2,348.5 457.1,179.3 "/>
<polyline class="st0" points="216,339.5 307.2,339.5 457.1,170.3 "/>
<polyline class="st0" points="216,330.5 307.2,330.5 457.1,161.3 "/>
<polyline class="st0" points="216,321.5 307.2,321.5 457.1,152.3 "/>
<polyline class="st0" points="216,312.5 307.2,312.5 457.1,143.3 "/>
<polyline class="st0" points="216,303.5 307.2,303.5 457.1,134.3 "/>
<polyline class="st0" points="216,294.5 307.2,294.5 457.1,125.3 "/>
<polyline class="st0" points="216,285.5 307.2,285.5 457.1,116.3 "/>
<rect y="284" class="st1" width="216" height="101"/>
</svg>
