<?xml version="1.0" encoding="utf-8"?>
<!-- Generator: Adobe Illustrator 19.2.1, SVG Export Plug-In . SVG Version: 6.00 Build 0)  -->
<svg version="1.1" id="Layer_1" xmlns="http://www.w3.org/2000/svg" xmlns:xlink="http://www.w3.org/1999/xlink" x="0px" y="0px"
	 viewBox="0 0 975 1052" style="enable-background:new 0 0 975 1052;" xml:space="preserve">
<style type="text/css">
	.st0{fill:none;stroke:#FFFFFF;stroke-width:2;stroke-miterlimit:10;}
	.st1{fill:none;stroke:#FFFFFF;stroke-miterlimit:10;}
	.st2{fill:none;stroke:#FFFFFF;stroke-width:1.3186;stroke-miterlimit:10;}
	.st3{fill:none;stroke:#FFFFFF;stroke-width:1.6667;stroke-miterlimit:10;}
</style>
<g>
	<path class="st0" d="M196.1,199.4h-75.5c-5.1,0-9.3-4.2-9.3-9.3v-75.5c0-5.1,4.2-9.3,9.3-9.3h75.5c5.1,0,9.3,4.2,9.3,9.3v75.5
		C205.5,195.3,201.2,199.4,196.1,199.4z"/>
	<polyline class="st0" points="129.3,105.5 129.3,70.2 122.6,64.5 	"/>
	<polyline class="st0" points="134.5,105.5 134.5,61.7 119.2,48.3 	"/>
	<polyline class="st0" points="139.7,105.5 139.7,53 115.1,30.2 	"/>
	<polyline class="st0" points="144.9,105.5 144.9,44.6 109.1,8.7 	"/>
	<polyline class="st0" points="166.8,105.5 166.8,47.9 199.8,35 	"/>
	<polyline class="st0" points="172,105.5 172,54.3 200,46.6 	"/>
	<polyline class="st0" points="177.2,105.5 177.2,61.9 199.6,57.1 	"/>
	<polyline class="st0" points="182.3,105.5 182.3,69.7 199.3,67.8 	"/>
	<polyline class="st0" points="150.6,105.5 150.6,12.7 996.3,12.7 	"/>
	<polyline class="st0" points="155.8,105.5 155.8,16.7 996.3,16.7 	"/>
	<polyline class="st0" points="161,105.5 161,20.7 996.3,20.7 	"/>
	<circle class="st0" cx="106.7" cy="5.5" r="4.2"/>
	<circle class="st0" cx="203.7" cy="33.4" r="4.2"/>
	<circle class="st0" cx="203.7" cy="44.8" r="4.2"/>
	<circle class="st0" cx="203.7" cy="55.8" r="4.2"/>
	<circle class="st0" cx="203.7" cy="66.8" r="4.2"/>
	<circle class="st0" cx="112.4" cy="27.5" r="4.2"/>
	<circle class="st0" cx="116" cy="45.7" r="4.2"/>
	<circle class="st0" cx="119" cy="61.9" r="4.2"/>
</g>
<g>
	<line class="st1" x1="131.3" y1="199.4" x2="131.3" y2="1052"/>
	<line class="st1" x1="134.8" y1="199.4" x2="134.8" y2="1052"/>
	<line class="st1" x1="138.2" y1="199.4" x2="138.2" y2="1052"/>
	<line class="st1" x1="141.7" y1="199.4" x2="141.7" y2="1052"/>
	<line class="st1" x1="145.2" y1="199.4" x2="145.2" y2="1052"/>
	<line class="st1" x1="148.6" y1="199.4" x2="148.6" y2="1052"/>
	<line class="st1" x1="152.1" y1="199.4" x2="152.1" y2="1052"/>
	<line class="st1" x1="155.5" y1="199.4" x2="155.5" y2="1052"/>
	<line class="st1" x1="159" y1="199.4" x2="159" y2="1052"/>
	<line class="st1" x1="162.5" y1="199.4" x2="162.5" y2="1052"/>
	<line class="st1" x1="165.9" y1="199.4" x2="165.9" y2="1052"/>
	<line class="st1" x1="169.4" y1="199.4" x2="169.4" y2="1052"/>
	<line class="st1" x1="172.8" y1="199.4" x2="172.8" y2="1052"/>
	<line class="st1" x1="176.3" y1="199.4" x2="176.3" y2="1052"/>
	<line class="st1" x1="179.7" y1="199.4" x2="179.7" y2="1052"/>
	<line class="st1" x1="183.2" y1="199.4" x2="183.2" y2="1052"/>
	<line class="st1" x1="186.7" y1="199.4" x2="186.7" y2="1052"/>
</g>
<circle class="st2" cx="159" cy="152.6" r="13.7"/>
<circle class="st3" cx="159" cy="152.6" r="17.3"/>
</svg>
