<?xml version="1.0" encoding="utf-8"?>
<!-- Generator: Adobe Illustrator 19.2.1, SVG Export Plug-In . SVG Version: 6.00 Build 0)  -->
<svg version="1.1" id="Layer_1" xmlns="http://www.w3.org/2000/svg" xmlns:xlink="http://www.w3.org/1999/xlink" x="0px" y="0px"
	 viewBox="0 0 1100 723" style="enable-background:new 0 0 1100 723;" xml:space="preserve">
<style type="text/css">
	.st0{fill:none;stroke:#FFFFFF;stroke-width:2;stroke-miterlimit:10;}
	.st1{fill:none;stroke:#FFFFFF;stroke-miterlimit:10;}
	.st2{fill:none;stroke:#FFFFFF;stroke-width:1.3186;stroke-miterlimit:10;}
	.st3{fill:none;stroke:#FFFFFF;stroke-width:1.6667;stroke-miterlimit:10;}
</style>
<g>
	<path class="st0" d="M264.9,345H134c-8.9,0-16.1-7.2-16.1-16.1V198c0-8.9,7.2-16.1,16.1-16.1h130.9c8.9,0,16.1,7.2,16.1,16.1v130.9
		C281.1,337.8,273.8,345,264.9,345z"/>
	<polyline class="st0" points="149,182 149,120.9 137.3,110.9 	"/>
	<polyline class="st0" points="158,182 158,106 131.4,82.9 	"/>
	<polyline class="st0" points="167,182 167,91 124.4,51.5 	"/>
	<polyline class="st0" points="176,182 176,76.5 114,14.2 	"/>
	<polyline class="st0" points="214,182 214,82.2 271.3,59.7 	"/>
	<polyline class="st0" points="223,182 223,93.3 271.6,79.8 	"/>
	<polyline class="st0" points="232,182 232,106.4 271,98.1 	"/>
	<polyline class="st0" points="241,182 241,120 270.4,116.7 	"/>
	<polyline class="st0" points="186,182 186,21 1102,21 	"/>
	<polyline class="st0" points="195,182 195,28 1102,28 	"/>
	<polyline class="st0" points="204,182 204,35 1102,35 	"/>
	<circle class="st0" cx="109.7" cy="8.5" r="7.2"/>
	<circle class="st0" cx="278.1" cy="56.9" r="7.2"/>
	<circle class="st0" cx="278.1" cy="76.8" r="7.2"/>
	<circle class="st0" cx="278.1" cy="95.9" r="7.2"/>
	<circle class="st0" cx="278.1" cy="114.9" r="7.2"/>
	<circle class="st0" cx="119.7" cy="46.7" r="7.2"/>
	<circle class="st0" cx="126" cy="78.3" r="7.2"/>
	<circle class="st0" cx="131.2" cy="106.4" r="7.2"/>
</g>
<g>
	<polyline class="st1" points="152.5,345 152.5,515.7 -1.7,723.8 	"/>
	<polyline class="st1" points="158.5,345 158.5,515.7 4.3,723.8 	"/>
	<polyline class="st1" points="164.5,345 164.5,515.7 10.3,723.8 	"/>
	<polyline class="st1" points="170.5,345 170.5,515.7 16.3,723.8 	"/>
	<polyline class="st1" points="176.5,345 176.5,515.7 22.3,723.8 	"/>
	<polyline class="st1" points="182.5,345 182.5,515.7 28.3,723.8 	"/>
	<polyline class="st1" points="188.5,345 188.5,515.7 34.3,723.8 	"/>
	<polyline class="st1" points="194.5,345 194.5,515.7 40.3,723.8 	"/>
	<polyline class="st1" points="200.5,345 200.5,515.7 46.3,723.8 	"/>
	<polyline class="st1" points="206.5,345 206.5,515.7 52.3,723.8 	"/>
	<polyline class="st1" points="212.5,345 212.5,515.7 58.3,723.8 	"/>
	<polyline class="st1" points="218.5,345 218.5,515.7 64.3,723.8 	"/>
	<polyline class="st1" points="224.5,345 224.5,515.7 70.3,723.8 	"/>
	<polyline class="st1" points="230.5,345 230.5,515.7 76.3,723.8 	"/>
	<polyline class="st1" points="236.5,345 236.5,515.7 82.3,723.8 	"/>
	<polyline class="st1" points="242.5,345 242.5,515.7 88.3,723.8 	"/>
	<polyline class="st1" points="248.5,345 248.5,515.7 94.3,723.8 	"/>
</g>
<circle class="st2" cx="200.5" cy="263.7" r="23.7"/>
<circle class="st3" cx="200.5" cy="263.7" r="30"/>
</svg>
