<?xml version="1.0" encoding="utf-8"?>
<!-- Generator: Adobe Illustrator 19.2.1, SVG Export Plug-In . SVG Version: 6.00 Build 0)  -->
<svg version="1.1" id="Layer_1" xmlns="http://www.w3.org/2000/svg" xmlns:xlink="http://www.w3.org/1999/xlink" x="0px" y="0px"
	 viewBox="0 0 376 582" style="enable-background:new 0 0 376 582;" xml:space="preserve">
<style type="text/css">
	.st0{fill:#353535;}
	.st1{fill:none;stroke:#353535;stroke-width:2;stroke-miterlimit:10;}
</style>
<circle class="st0" cx="136.6" cy="139" r="137.4"/>
<polyline class="st1" points="199,134.7 375,262.9 375,484 "/>
<polyline class="st1" points="199,143.7 375,271.9 375,493 "/>
<polyline class="st1" points="199,152.7 375,280.9 375,502 "/>
<polyline class="st1" points="199,161.7 375,289.9 375,511 "/>
<polyline class="st1" points="199,170.7 375,298.9 375,520 "/>
<polyline class="st1" points="199,179.7 375,307.9 375,529 "/>
<polyline class="st1" points="199,188.7 375,316.9 375,538 "/>
<polyline class="st1" points="199,197.7 375,325.9 375,547 "/>
<polyline class="st1" points="199,206.7 375,334.9 375,556 "/>
<polyline class="st1" points="199,215.7 375,343.9 375,565 "/>
<polyline class="st1" points="199,224.7 375,352.9 375,574 "/>
<polyline class="st1" points="199,233.7 375,361.9 375,583 "/>
</svg>
