<?xml version="1.0" encoding="utf-8"?>
<!-- Generator: Adobe Illustrator 19.2.1, SVG Export Plug-In . SVG Version: 6.00 Build 0)  -->
<svg version="1.1" id="Layer_1" xmlns="http://www.w3.org/2000/svg" xmlns:xlink="http://www.w3.org/1999/xlink" x="0px" y="0px"
	 viewBox="0 0 693 431" style="enable-background:new 0 0 693 431;" xml:space="preserve">
<style type="text/css">
	.st0{fill:none;stroke:#FFFFFF;stroke-miterlimit:10;}
	.st1{fill:#FFFFFF;}
</style>
<path class="st0" d="M80,128.3c7-6,165.7-127.8,165.7-127.8H471"/>
<path class="st0" d="M80,137.3c7-6,165.7-127.8,165.7-127.8H471"/>
<path class="st0" d="M80,146.3c7-6,165.7-127.8,165.7-127.8H471"/>
<path class="st0" d="M80,155.3c7-6,165.7-127.8,165.7-127.8H471"/>
<path class="st0" d="M80,164.3c7-6,165.7-127.8,165.7-127.8H471"/>
<path class="st0" d="M80,173.3c7-6,165.7-127.8,165.7-127.8H471"/>
<path class="st0" d="M80,182.3c7-6,165.7-127.8,165.7-127.8H471"/>
<path class="st0" d="M80,191.3c7-6,165.7-127.8,165.7-127.8H471"/>
<path class="st0" d="M80,200.3c7-6,165.7-127.8,165.7-127.8H471"/>
<path class="st0" d="M80,209.3c7-6,165.7-127.8,165.7-127.8H471"/>
<path class="st0" d="M80,218.3c7-6,165.7-127.8,165.7-127.8H471"/>
<path class="st0" d="M80,227.3c7-6,165.7-127.8,165.7-127.8H471"/>
<rect x="471" class="st1" width="222" height="101"/>
</svg>
