<?xml version="1.0" encoding="utf-8"?>
<!-- Generator: Adobe Illustrator 19.2.1, SVG Export Plug-In . SVG Version: 6.00 Build 0)  -->
<svg version="1.1" id="Layer_1" xmlns="http://www.w3.org/2000/svg" xmlns:xlink="http://www.w3.org/1999/xlink" x="0px" y="0px"
	 viewBox="0 0 203 221" style="enable-background:new 0 0 203 221;" xml:space="preserve">
<style type="text/css">
	.st0{fill:none;stroke:#139BBD;stroke-miterlimit:10;}
</style>
<polyline class="st0" points="202.5,0 202.5,122.7 97.7,220.5 "/>
<polyline class="st0" points="195.5,0 195.5,122.7 90.7,220.5 "/>
<polyline class="st0" points="188.5,0 188.5,122.7 83.7,220.5 "/>
<polyline class="st0" points="181.5,0 181.5,122.7 76.7,220.5 "/>
<polyline class="st0" points="174.5,0 174.5,122.7 69.7,220.5 "/>
<polyline class="st0" points="167.5,0 167.5,122.7 62.7,220.5 "/>
<polyline class="st0" points="160.5,0 160.5,122.7 55.7,220.5 "/>
<polyline class="st0" points="153.5,0 153.5,122.7 48.7,220.5 "/>
<polyline class="st0" points="146.5,0 146.5,122.7 41.7,220.5 "/>
<polyline class="st0" points="139.5,0 139.5,122.7 34.7,220.5 "/>
<polyline class="st0" points="132.5,0 132.5,122.7 27.7,220.5 "/>
<polyline class="st0" points="125.5,0 125.5,122.7 20.7,220.5 "/>
<polyline class="st0" points="118.5,0 118.5,122.7 13.7,220.5 "/>
<polyline class="st0" points="111.5,0 111.5,122.7 6.7,220.5 "/>
<polyline class="st0" points="104.5,0 104.5,122.7 -0.3,220.5 "/>
</svg>
