<svg id="Layer_1" data-name="Layer 1" xmlns="http://www.w3.org/2000/svg" viewBox="0 0 308.81 172.8"><defs><style>.cls-1{fill:#fff;}.cls-2{fill:#3d3d3d;}</style></defs><title>marker</title><rect class="cls-1" width="308.81" height="123.8"/><path class="cls-2" d="M192.5-261.9H150.2c-17.5,0-31.7-11.8-31.7-26.3s14.2-26.3,31.7-26.3h42.3a2,2,0,0,1,2,2,2,2,0,0,1-2,2H150.2c-15.3,0-27.7,10-27.7,22.3s12.4,22.3,27.7,22.3h42.3a2,2,0,0,1,2,2A2,2,0,0,1,192.5-261.9Z" transform="translate(13.9 338.05)"/><path class="cls-2" d="M78.6-311.9v-0.4h0v-0.4c0-.1-0.1-0.2-0.1-0.3v-0.1a2.1,2.1,0,0,0-1.9-1.3H2.5a2,2,0,0,0-2,2,2,2,0,0,0,2,2H57.2a5.57,5.57,0,0,1,3.5,1.9c1.8,2.3-1,4.7-2.4,5.7l4.4-2.8-61.3,40a2.05,2.05,0,0,0-.6,2.8,2,2,0,0,0,1.7.9,2,2,0,0,0,1.1-.3l74.2-48.4a2.22,2.22,0,0,0,.8-1.3h0Z" transform="translate(13.9 338.05)"/><path class="cls-2" d="M58.3-302.7l-0.7.5S57.9-302.4,58.3-302.7Z" transform="translate(13.9 338.05)"/><path class="cls-2" d="M191.5-288.3H172.9a2,2,0,0,0-2,2,2,2,0,0,0,2,2h0.4a19.38,19.38,0,0,1,11.4,4.8c3.9,3.7,4.6,6,4.8,6.8v0.3h0a2,2,0,0,0,1.9,1.6,2,2,0,0,0,2-2v-13.5A1.86,1.86,0,0,0,191.5-288.3Z" transform="translate(13.9 338.05)"/><path class="cls-2" d="M189.5-272.3h0Z" transform="translate(13.9 338.05)"/><path class="cls-2" d="M105.2-290.2a2,2,0,0,0-2,2v5.6a25.18,25.18,0,0,1-4.9,12,12.49,12.49,0,0,1-7.7,4.9H26.2a2,2,0,0,0-2,2,2,2,0,0,0,2,2h79a2,2,0,0,0,2-2v-24.5A2,2,0,0,0,105.2-290.2Z" transform="translate(13.9 338.05)"/><path class="cls-2" d="M280.7-262.8v-0.6h0v-49.1a2,2,0,0,0-2-2,2,2,0,0,0-2,2v29.1c-0.2.8-1.5,6.9-4.3,8.4-3.1,1.6-7.2-.1-8.7-0.8l-58.3-38.3a2,2,0,0,0-2.8.6,2,2,0,0,0,.6,2.8l74.6,49.1h0a0.76,0.76,0,0,0,.4.2h0.1c0.2,0,.3.1,0.5,0.1h0a0.48,0.48,0,0,0,.4-0.1h0.1c0.1,0,.2-0.1.3-0.1a0.1,0.1,0,0,0,.1-0.1c0.1-.1.2-0.1,0.3-0.2l0.1-.1,0.3-.3h0a0.1,0.1,0,0,1,.1-0.1c0-.1.1-0.1,0.1-0.2A0.77,0.77,0,0,0,280.7-262.8Z" transform="translate(13.9 338.05)"/><circle class="cls-2" cx="119.11" cy="25.75" r="3.2"/><path class="cls-2" d="M2.1-248.4a0.68,0.68,0,0,1-.7.7,0.68,0.68,0,0,1-.7-0.7,0.68,0.68,0,0,1,.7-0.7A0.63,0.63,0,0,1,2.1-248.4Zm-1.3,8.2v-6.4H2v6.4H0.8Z" transform="translate(13.9 338.05)"/><path class="cls-2" d="M25.5-244.9a8.62,8.62,0,0,0-.1-1.7h1l0.1,1h0a2.39,2.39,0,0,1,2.1-1.2c0.9,0,2.3.5,2.3,2.7v3.8H29.7V-244c0-1-.4-1.9-1.5-1.9a1.62,1.62,0,0,0-1.6,1.2,0.75,0.75,0,0,0-.1.5v3.9H25.3v-4.6h0.2Z" transform="translate(13.9 338.05)"/><path class="cls-2" d="M54.5-244.9a8.62,8.62,0,0,0-.1-1.7h1l0.1,1h0a2.39,2.39,0,0,1,2.1-1.2c0.9,0,2.3.5,2.3,2.7v3.8H58.7V-244c0-1-.4-1.9-1.5-1.9a1.62,1.62,0,0,0-1.6,1.2,0.75,0.75,0,0,0-.1.5v3.9H54.3v-4.6h0.2Z" transform="translate(13.9 338.05)"/><path class="cls-2" d="M89.3-243.4a3.14,3.14,0,0,1-3.2,3.4,3.1,3.1,0,0,1-3.1-3.3,3.15,3.15,0,0,1,3.2-3.4A3,3,0,0,1,89.3-243.4Zm-5.1,0c0,1.3.7,2.5,2,2.5s2-1.2,2-2.5c0-1.1-.5-2.5-2-2.5S84.2-244.5,84.2-243.4Z" transform="translate(13.9 338.05)"/><path class="cls-2" d="M112.8-246.6l1.3,3.6a10.93,10.93,0,0,1,.5,1.7h0a15.43,15.43,0,0,1,.5-1.7l1.3-3.6h1.2l-2.5,6.4H114l-2.4-6.4h1.2Z" transform="translate(13.9 338.05)"/><path class="cls-2" d="M144.8-241.7a6.62,6.62,0,0,0,.1,1.5h-1l-0.1-.8h0a2.44,2.44,0,0,1-2,1,1.85,1.85,0,0,1-2-1.8c0-1.6,1.4-2.4,3.9-2.4v-0.2a1.39,1.39,0,0,0-1.5-1.5,3.37,3.37,0,0,0-1.7.5l-0.3-.8a4.34,4.34,0,0,1,2.1-.6c2,0,2.4,1.3,2.4,2.6v2.5h0.1Zm-1.1-1.8c-1.3,0-2.7.2-2.7,1.4a1,1,0,0,0,1.1,1.1,1.66,1.66,0,0,0,1.6-1.1c0-.1.1-0.3,0.1-0.4v-1h-0.1Z" transform="translate(13.9 338.05)"/><path class="cls-2" d="M169.7-248.5v1.9h1.7v0.9h-1.7v3.5c0,0.8.2,1.2,0.9,1.2a1.48,1.48,0,0,0,.7-0.1l0.1,0.9a2.51,2.51,0,0,1-1,.2,1.9,1.9,0,0,1-1.3-.5,2.67,2.67,0,0,1-.4-1.7v-3.5h-1v-0.9h1v-1.6Z" transform="translate(13.9 338.05)"/><path class="cls-2" d="M195.6-248.4a0.68,0.68,0,0,1-.7.7,0.68,0.68,0,0,1-.7-0.7,0.68,0.68,0,0,1,.7-0.7A0.63,0.63,0,0,1,195.6-248.4Zm-1.3,8.2v-6.4h1.2v6.4h-1.2Z" transform="translate(13.9 338.05)"/><path class="cls-2" d="M224.8-243.4a3.14,3.14,0,0,1-3.2,3.4,3.1,3.1,0,0,1-3.1-3.3,3.15,3.15,0,0,1,3.2-3.4A3,3,0,0,1,224.8-243.4Zm-5.1,0c0,1.3.7,2.5,2,2.5s2-1.2,2-2.5c0-1.1-.5-2.5-2-2.5S219.7-244.5,219.7-243.4Z" transform="translate(13.9 338.05)"/><path class="cls-2" d="M247.9-244.9a8.62,8.62,0,0,0-.1-1.7h1l0.1,1h0a2.39,2.39,0,0,1,2.1-1.2c0.9,0,2.3.5,2.3,2.7v3.8h-1.2V-244c0-1-.4-1.9-1.5-1.9a1.62,1.62,0,0,0-1.6,1.2,0.75,0.75,0,0,0-.1.5v3.9h-1.2v-4.6h0.2Z" transform="translate(13.9 338.05)"/><path class="cls-2" d="M276.8-241.4a3.33,3.33,0,0,0,1.5.5,1,1,0,0,0,1.2-1c0-.6-0.3-0.8-1.2-1.2a2,2,0,0,1-1.7-1.8,2,2,0,0,1,2.2-1.9,3.41,3.41,0,0,1,1.6.4l-0.3.8a3.32,3.32,0,0,0-1.3-.4,1,1,0,0,0-1.1.9c0,0.5.4,0.8,1.2,1.1,1.1,0.4,1.7,1,1.7,1.9,0,1.1-.9,1.9-2.4,1.9a3.2,3.2,0,0,1-1.8-.5Z" transform="translate(13.9 338.05)"/><polygon class="cls-1" points="126.46 123.81 152.85 172.81 182.35 123.81 126.46 123.81"/></svg>