<?xml version="1.0" encoding="utf-8"?>
<!-- Generator: Adobe Illustrator 19.2.1, SVG Export Plug-In . SVG Version: 6.00 Build 0)  -->
<svg version="1.1" id="Layer_1" xmlns="http://www.w3.org/2000/svg" xmlns:xlink="http://www.w3.org/1999/xlink" x="0px" y="0px"
	 viewBox="0 0 621 411" style="enable-background:new 0 0 621 411;" xml:space="preserve">
<style type="text/css">
	.st0{fill:none;stroke:#FFFFFF;stroke-miterlimit:10;}
	.st1{fill:#FFFFFF;}
	.st2{fill:#8C979D;}
</style>
<polyline class="st0" points="74.9,298.7 246.1,410.5 477,410.5 "/>
<polyline class="st0" points="87.9,298.7 259.1,410.5 490,410.5 "/>
<polyline class="st0" points="100.9,298.7 272.1,410.5 503,410.5 "/>
<polyline class="st0" points="113.9,298.7 285.1,410.5 516,410.5 "/>
<polyline class="st0" points="126.9,298.7 298.1,410.5 529,410.5 "/>
<polyline class="st0" points="139.9,298.7 311.1,410.5 542,410.5 "/>
<polyline class="st0" points="152.9,298.7 324.1,410.5 555,410.5 "/>
<polyline class="st0" points="165.9,298.7 337.1,410.5 568,410.5 "/>
<polyline class="st0" points="178.9,298.7 350.1,410.5 581,410.5 "/>
<polyline class="st0" points="191.9,298.7 363.1,410.5 594,410.5 "/>
<polyline class="st0" points="204.9,298.7 376.1,410.5 607,410.5 "/>
<polyline class="st0" points="217.7,298.7 389.1,410.5 619.5,410.5 619.5,199 "/>
<circle class="st1" cx="163.3" cy="162.9" r="162.7"/>
<g>
	<polygon class="st2" points="179,162 164,162 164,147 162,147 162,162 148,162 148,164 162,164 162,179 164,179 164,164 179,164 	
		"/>
</g>
<rect x="397" y="98" class="st1" width="224" height="101"/>
</svg>
