<?xml version="1.0" encoding="utf-8"?>
<!-- Generator: Adobe Illustrator 19.2.1, SVG Export Plug-In . SVG Version: 6.00 Build 0)  -->
<svg version="1.1" id="Layer_1" xmlns="http://www.w3.org/2000/svg" xmlns:xlink="http://www.w3.org/1999/xlink" x="0px" y="0px"
	 viewBox="0 0 281 76" style="enable-background:new 0 0 281 76;" xml:space="preserve">
<style type="text/css">
	.st0{fill:#3D3D3D;}
</style>
<g>
	<g>
		<path class="st0" d="M192.2,53.5h-42.3c-17.5,0-31.7-11.8-31.7-26.3s14.2-26.3,31.7-26.3h42.3c1.1,0,2,0.9,2,2s-0.9,2-2,2h-42.3
			c-15.3,0-27.7,10-27.7,22.3s12.4,22.3,27.7,22.3h42.3c1.1,0,2,0.9,2,2S193.3,53.5,192.2,53.5z"/>
	</g>
	<g>
		<path class="st0" d="M78.3,3.5c0-0.1,0-0.3,0-0.4c0,0,0,0,0,0c0-0.1,0-0.1,0-0.2c0-0.1,0-0.1,0-0.2c0-0.1-0.1-0.2-0.1-0.3
			c0,0,0,0,0-0.1c-0.3-0.7-1-1.3-1.9-1.3H2.2c-1.1,0-2,0.9-2,2s0.9,2,2,2h54.7c1.3,0.2,2.6,0.8,3.5,1.9c1.8,2.3-1,4.7-2.4,5.7
			l4.4-2.8l-61.3,40c-0.9,0.6-1.2,1.8-0.6,2.8c0.4,0.6,1,0.9,1.7,0.9c0.4,0,0.8-0.1,1.1-0.3L77.5,4.8C77.9,4.5,78.2,4,78.3,3.5
			C78.3,3.5,78.3,3.5,78.3,3.5z"/>
		<path class="st0" d="M58,12.7l-0.7,0.5C57.3,13.2,57.6,13,58,12.7z"/>
	</g>
	<g>
		<path class="st0" d="M191.2,27.1h-18.6c-1.1,0-2,0.9-2,2s0.9,2,2,2h0.4c1.7,0.1,7.3,0.9,11.4,4.8c3.9,3.7,4.6,6,4.8,6.8
			c0,0.1,0,0.2,0,0.2c0,0,0,0,0,0.1V43c0.2,0.9,1,1.6,1.9,1.6c1.1,0,2-0.9,2-2V29.1C193.2,28,192.3,27.1,191.2,27.1z"/>
		<path class="st0" d="M189.2,43.1L189.2,43.1C189.2,43.1,189.2,43.1,189.2,43.1z"/>
	</g>
	<path class="st0" d="M104.9,25.2c-1.1,0-2,0.9-2,2v5.6c-0.2,1.5-1.1,7.3-4.9,12c-2.9,3.6-5.9,4.6-7.7,4.9H25.9c-1.1,0-2,0.9-2,2
		s0.9,2,2,2h79c1.1,0,2-0.9,2-2V27.2C106.9,26.1,106,25.2,104.9,25.2z"/>
	<path class="st0" d="M280.4,52.6c0-0.1,0-0.1,0-0.2c0-0.1,0-0.2,0-0.3c0,0,0-0.1,0-0.1v0c0,0,0,0,0,0V2.9c0-1.1-0.9-2-2-2
		s-2,0.9-2,2v29.1c-0.2,0.8-1.5,6.9-4.3,8.4c-3.1,1.6-7.2-0.1-8.7-0.8L205.1,1.3c-0.9-0.6-2.2-0.4-2.8,0.6c-0.6,0.9-0.4,2.2,0.6,2.8
		l74.6,49.1c0,0,0,0,0,0c0.1,0.1,0.3,0.2,0.4,0.2c0,0,0.1,0,0.1,0c0.2,0,0.3,0.1,0.5,0.1c0,0,0,0,0,0h0h0c0.2,0,0.3,0,0.4-0.1
		c0,0,0.1,0,0.1,0c0.1,0,0.2-0.1,0.3-0.1c0,0,0.1,0,0.1-0.1c0.1-0.1,0.2-0.1,0.3-0.2c0,0,0.1-0.1,0.1-0.1c0.1-0.1,0.2-0.2,0.3-0.3
		c0,0,0,0,0,0c0,0,0-0.1,0.1-0.1c0-0.1,0.1-0.1,0.1-0.2C280.4,52.7,280.4,52.6,280.4,52.6z"/>
	<circle class="st0" cx="104.9" cy="3.1" r="3.2"/>
	<g>
		<path class="st0" d="M1.8,67c0,0.4-0.3,0.7-0.7,0.7c-0.4,0-0.7-0.3-0.7-0.7c0-0.4,0.3-0.7,0.7-0.7C1.5,66.2,1.8,66.6,1.8,67z
			 M0.5,75.2v-6.4h1.2v6.4H0.5z"/>
		<path class="st0" d="M25.2,70.5c0-0.7,0-1.2-0.1-1.7h1l0.1,1h0c0.3-0.6,1.1-1.2,2.1-1.2c0.9,0,2.3,0.5,2.3,2.7v3.8h-1.2v-3.7
			c0-1-0.4-1.9-1.5-1.9c-0.8,0-1.4,0.5-1.6,1.2c-0.1,0.1-0.1,0.3-0.1,0.5v3.9h-1.2V70.5z"/>
		<path class="st0" d="M54.2,70.5c0-0.7,0-1.2-0.1-1.7h1l0.1,1h0c0.3-0.6,1.1-1.2,2.1-1.2c0.9,0,2.3,0.5,2.3,2.7v3.8h-1.2v-3.7
			c0-1-0.4-1.9-1.5-1.9c-0.8,0-1.4,0.5-1.6,1.2c-0.1,0.1-0.1,0.3-0.1,0.5v3.9h-1.2V70.5z"/>
		<path class="st0" d="M89,72c0,2.4-1.7,3.4-3.2,3.4c-1.7,0-3.1-1.3-3.1-3.3c0-2.2,1.5-3.4,3.2-3.4C87.7,68.7,89,69.9,89,72z
			 M83.9,72c0,1.3,0.7,2.5,2,2.5c1.3,0,2-1.2,2-2.5c0-1.1-0.5-2.5-2-2.5C84.4,69.5,83.9,70.9,83.9,72z"/>
		<path class="st0" d="M112.5,68.8l1.3,3.6c0.2,0.6,0.4,1.1,0.5,1.7h0c0.1-0.5,0.3-1.1,0.5-1.7l1.3-3.6h1.2l-2.5,6.4h-1.1l-2.4-6.4
			H112.5z"/>
		<path class="st0" d="M144.5,73.7c0,0.6,0,1.1,0.1,1.5h-1l-0.1-0.8h0c-0.4,0.5-1,1-2,1c-1.3,0-2-0.9-2-1.8c0-1.6,1.4-2.4,3.9-2.4
			V71c0-0.5-0.2-1.5-1.5-1.5c-0.6,0-1.2,0.2-1.7,0.5l-0.3-0.8c0.5-0.3,1.3-0.6,2.1-0.6c2,0,2.4,1.3,2.4,2.6V73.7z M143.4,71.9
			c-1.3,0-2.7,0.2-2.7,1.4c0,0.8,0.5,1.1,1.1,1.1c0.8,0,1.4-0.5,1.6-1.1c0-0.1,0.1-0.3,0.1-0.4V71.9z"/>
		<path class="st0" d="M169.4,66.9v1.9h1.7v0.9h-1.7v3.5c0,0.8,0.2,1.2,0.9,1.2c0.3,0,0.5,0,0.7-0.1l0.1,0.9c-0.2,0.1-0.6,0.2-1,0.2
			c-0.5,0-1-0.2-1.3-0.5c-0.3-0.4-0.4-0.9-0.4-1.7v-3.5h-1v-0.9h1v-1.6L169.4,66.9z"/>
		<path class="st0" d="M195.3,67c0,0.4-0.3,0.7-0.7,0.7c-0.4,0-0.7-0.3-0.7-0.7c0-0.4,0.3-0.7,0.7-0.7C195,66.2,195.3,66.6,195.3,67
			z M194,75.2v-6.4h1.2v6.4H194z"/>
		<path class="st0" d="M224.5,72c0,2.4-1.7,3.4-3.2,3.4c-1.7,0-3.1-1.3-3.1-3.3c0-2.2,1.5-3.4,3.2-3.4
			C223.2,68.7,224.5,69.9,224.5,72z M219.4,72c0,1.3,0.7,2.5,2,2.5c1.3,0,2-1.2,2-2.5c0-1.1-0.5-2.5-2-2.5
			C219.9,69.5,219.4,70.9,219.4,72z"/>
		<path class="st0" d="M247.6,70.5c0-0.7,0-1.2-0.1-1.7h1l0.1,1h0c0.3-0.6,1.1-1.2,2.1-1.2c0.9,0,2.3,0.5,2.3,2.7v3.8h-1.2v-3.7
			c0-1-0.4-1.9-1.5-1.9c-0.8,0-1.4,0.5-1.6,1.2c-0.1,0.1-0.1,0.3-0.1,0.5v3.9h-1.2V70.5z"/>
		<path class="st0" d="M276.5,74c0.3,0.2,1,0.5,1.5,0.5c0.8,0,1.2-0.4,1.2-1c0-0.6-0.3-0.8-1.2-1.2c-1.2-0.4-1.7-1.1-1.7-1.8
			c0-1,0.8-1.9,2.2-1.9c0.7,0,1.2,0.2,1.6,0.4l-0.3,0.8c-0.3-0.1-0.7-0.4-1.3-0.4c-0.7,0-1.1,0.4-1.1,0.9c0,0.5,0.4,0.8,1.2,1.1
			c1.1,0.4,1.7,1,1.7,1.9c0,1.1-0.9,1.9-2.4,1.9c-0.7,0-1.4-0.2-1.8-0.5L276.5,74z"/>
	</g>
</g>
</svg>
