<?xml version="1.0" encoding="utf-8"?>
<!-- Generator: Adobe Illustrator 19.2.1, SVG Export Plug-In . SVG Version: 6.00 Build 0)  -->
<svg version="1.1" id="Layer_1" xmlns="http://www.w3.org/2000/svg" xmlns:xlink="http://www.w3.org/1999/xlink" x="0px" y="0px"
	 viewBox="0 0 192 355" style="enable-background:new 0 0 192 355;" xml:space="preserve">
<style type="text/css">
	.st0{fill:none;stroke:#FFFFFF;stroke-miterlimit:10;}
</style>
<polyline class="st0" points="1.5,1 1.5,194.7 115.5,355.8 "/>
<polyline class="st0" points="7.5,1 7.5,194.7 121.5,355.8 "/>
<polyline class="st0" points="13.5,1 13.5,194.7 127.5,355.8 "/>
<polyline class="st0" points="19.5,1 19.5,194.7 133.5,355.8 "/>
<polyline class="st0" points="25.5,1 25.5,194.7 139.5,355.8 "/>
<polyline class="st0" points="31.5,1 31.5,194.7 145.5,355.8 "/>
<polyline class="st0" points="37.5,1 37.5,194.7 151.5,355.8 "/>
<polyline class="st0" points="43.5,1 43.5,194.7 157.5,355.8 "/>
<polyline class="st0" points="49.5,1 49.5,194.7 163.5,355.8 "/>
<polyline class="st0" points="55.5,1 55.5,194.7 169.5,355.8 "/>
<polyline class="st0" points="61.5,1 61.5,194.7 175.5,355.8 "/>
<polyline class="st0" points="67.5,1 67.5,194.7 181.5,355.8 "/>
<polyline class="st0" points="73.5,1 73.5,194.7 187.5,355.8 "/>
<polyline class="st0" points="79.5,1 79.5,194.7 193.5,355.8 "/>
</svg>
