<?xml version="1.0" encoding="utf-8"?>
<!-- Generator: Adobe Illustrator 19.2.1, SVG Export Plug-In . SVG Version: 6.00 Build 0)  -->
<svg version="1.1" id="Layer_1" xmlns="http://www.w3.org/2000/svg" xmlns:xlink="http://www.w3.org/1999/xlink" x="0px" y="0px"
	 viewBox="0 0 1600 356" style="enable-background:new 0 0 1600 356;" xml:space="preserve">
<style type="text/css">
	.st0{fill:none;stroke:#139BBD;stroke-width:2;stroke-miterlimit:10;}
	.st1{fill:none;stroke:#139BBD;stroke-miterlimit:10;}
	.st2{fill:none;stroke:#139BBD;stroke-width:1.3186;stroke-miterlimit:10;}
	.st3{fill:none;stroke:#139BBD;stroke-width:1.6667;stroke-miterlimit:10;}
</style>
<g>
	<path class="st0" d="M1221.6,22v130.9c0,8.9-7.2,16.1-16.1,16.1h-130.9c-8.9,0-16.1-7.2-16.1-16.1V22c0-8.9,7.2-16.1,16.1-16.1
		h130.9C1214.4,5.9,1221.6,13.1,1221.6,22z"/>
	<polyline class="st0" points="1058,138 997.5,138 987.2,149.7 	"/>
	<polyline class="st0" points="1058,129 982.6,129 959.2,155.6 	"/>
	<polyline class="st0" points="1058,120 967.6,120 927.8,162.6 	"/>
	<polyline class="st0" points="1058,111 953.1,111 890.5,173 	"/>
	<polyline class="st0" points="1058,73 958.8,73 936,15.7 	"/>
	<polyline class="st0" points="1058,64 969.9,64 956.1,15.4 	"/>
	<polyline class="st0" points="1058,55 983,55 974.4,16 	"/>
	<polyline class="st0" points="1058,46 996.6,46 993,16.6 	"/>
	<line class="st0" x1="1058" y1="101" x2="-47" y2="101"/>
	<line class="st0" x1="1058" y1="92" x2="-47" y2="92"/>
	<line class="st0" x1="1058" y1="83" x2="-47" y2="83"/>
	<circle class="st0" cx="885.1" cy="177.3" r="7.2"/>
	<circle class="st0" cx="933.5" cy="8.9" r="7.2"/>
	<circle class="st0" cx="953.4" cy="8.9" r="7.2"/>
	<circle class="st0" cx="972.4" cy="8.9" r="7.2"/>
	<circle class="st0" cx="991.5" cy="8.9" r="7.2"/>
	<circle class="st0" cx="923.2" cy="167.3" r="7.2"/>
	<circle class="st0" cx="954.9" cy="160.9" r="7.2"/>
	<circle class="st0" cx="983" cy="155.7" r="7.2"/>
	<polyline class="st1" points="1221,134.5 1392.3,134.5 1600.1,357.7 	"/>
	<polyline class="st1" points="1221,128.5 1392.3,128.5 1600.1,351.7 	"/>
	<polyline class="st1" points="1221,122.5 1392.3,122.5 1600.1,345.7 	"/>
	<polyline class="st1" points="1221,116.5 1392.3,116.5 1600.1,339.7 	"/>
	<polyline class="st1" points="1221,110.5 1392.3,110.5 1600.1,333.7 	"/>
	<polyline class="st1" points="1221,104.5 1392.3,104.5 1600.1,327.7 	"/>
	<polyline class="st1" points="1221,98.5 1392.3,98.5 1600.1,321.7 	"/>
	<polyline class="st1" points="1221,92.5 1392.3,92.5 1600.1,315.7 	"/>
	<polyline class="st1" points="1221,86.5 1392.3,86.5 1600.1,309.7 	"/>
	<polyline class="st1" points="1221,80.5 1392.3,80.5 1600.1,303.7 	"/>
	<polyline class="st1" points="1221,74.5 1392.3,74.5 1600.1,297.7 	"/>
	<polyline class="st1" points="1221,68.5 1392.3,68.5 1600.1,291.7 	"/>
	<polyline class="st1" points="1221,62.5 1392.3,62.5 1600.1,285.7 	"/>
	<polyline class="st1" points="1221,56.5 1392.3,56.5 1600.1,279.7 	"/>
	<polyline class="st1" points="1221,50.5 1392.3,50.5 1600.1,273.7 	"/>
	<polyline class="st1" points="1221,44.5 1392.3,44.5 1600.1,267.7 	"/>
	<polyline class="st1" points="1221,38.5 1392.3,38.5 1600.1,261.7 	"/>
	<circle class="st2" cx="1140.3" cy="86.4" r="23.7"/>
	<circle class="st3" cx="1140.3" cy="86.4" r="30"/>
</g>
</svg>
