<?xml version="1.0" encoding="utf-8"?>
<!-- Generator: Adobe Illustrator 19.2.1, SVG Export Plug-In . SVG Version: 6.00 Build 0)  -->
<svg version="1.1" id="Layer_1" xmlns="http://www.w3.org/2000/svg" xmlns:xlink="http://www.w3.org/1999/xlink" x="0px" y="0px"
	 viewBox="0 0 67 67" style="enable-background:new 0 0 67 67;" xml:space="preserve">
<style type="text/css">
	.st0{fill:#254C62;}
</style>
<g>
	<path class="st0" d="M33.5,67C15,67,0,52,0,33.5C0,15.1,15,0.1,33.5,0.1s33.5,15,33.5,33.5C66.9,52,51.9,67,33.5,67z M33.5,2.3
		c-17.2,0-31.2,14-31.2,31.2c0,17.2,14,31.2,31.2,31.2c17.2,0,31.2-14,31.2-31.2C64.7,16.3,50.7,2.3,33.5,2.3z"/>
	<g>
		<path class="st0" d="M46,28v3h-4v-3H46z M26,28v3h-4v-3H26z"/>
	</g>
	<path class="st0" d="M14.4,39.9c4.7,7.6,11,11.9,19,11.9s14.4-4.2,19-11.9l1.6,1c-4.8,8.5-11.9,13.4-20.6,13.4s-15.8-4.9-20.6-13.4
		L14.4,39.9z"/>
</g>
</svg>
